# xmcd CD database file
#
# Track frame offsets:
#	150
#	21478
#	47010
#	65130
#	81233
#	101413
#	126633
#	143010
#
# Disc length: 2123 seconds
#
# Revision: 0
# Processed by: cddbd v1.5PL3 Copyright (c) Steve Scherf et al.
# Submitted via: CDex 1.51
#
DISCID=74084908
DTITLE=OSCAR DE LEON - TOITICO TUYO
DYEAR=1900
DGENRE=Salsa
TTITLE0=mentiras
TTITLE1=si fueras mia
TTITLE2=como olvidarte
TTITLE3=toitico tuyo
TTITLE4=matematica sexual
TTITLE5=que raro
TTITLE6=cosas de carton
TTITLE7=de ti
EXTD=
EXTT0=
EXTT1=
EXTT2=
EXTT3=
EXTT4=
EXTT5=
EXTT6=
EXTT7=
PLAYORDER=
